<?xml version="1.0" encoding="UTF-8" standalone="no"?>
<svg width="1920" height="1080" viewBox="0 0 1920 1080" xmlns="http://www.w3.org/2000/svg">
  <rect width="1920" height="1080" fill="#f8f8f8"/>
  <defs>
    <linearGradient id="grad1" x1="0%" y1="0%" x2="100%" y2="100%">
      <stop offset="0%" style="stop-color:#3d7194;stop-opacity:0.1" />
      <stop offset="100%" style="stop-color:#235777;stop-opacity:0.15" />
    </linearGradient>
    <filter id="blur1" x="-50%" y="-50%" width="200%" height="200%">
      <feGaussianBlur in="SourceGraphic" stdDeviation="30" />
    </filter>
    <filter id="blurIcon" x="-50%" y="-50%" width="200%" height="200%">
      <feGaussianBlur in="SourceGraphic" stdDeviation="5" />
    </filter>
  </defs>
  <rect width="1920" height="1080" fill="url(#grad1)"/>
  <circle cx="300" cy="300" r="200" fill="#3d7194" opacity="0.08" filter="url(#blur1)"/>
  <circle cx="1600" cy="800" r="250" fill="#3d7194" opacity="0.08" filter="url(#blur1)"/>
  <circle cx="1000" cy="400" r="150" fill="#235777" opacity="0.05" filter="url(#blur1)"/>
  <path d="M0,1080 C400,900 800,1000 1200,900 C1600,800 1920,950 1920,1080 L0,1080 Z" fill="#3d7194" opacity="0.05"/>
  <g transform="translate(1400, 300) scale(0.6) rotate(15)">
    <path d="M60,100 C40,150 40,150 60,200" stroke="#235777" stroke-width="10" fill="none" stroke-linecap="round" opacity="0.1"/>
    <path d="M240,100 C260,150 260,150 240,200" stroke="#235777" stroke-width="10" fill="none" stroke-linecap="round" opacity="0.1"/>
    <line x1="90" y1="120" x2="210" y2="120" stroke="#235777" stroke-width="8" stroke-linecap="round" opacity="0.1"/>
    <line x1="90" y1="150" x2="180" y2="150" stroke="#235777" stroke-width="8" stroke-linecap="round" opacity="0.1"/>
    <line x1="90" y1="180" x2="150" y2="180" stroke="#235777" stroke-width="8" stroke-linecap="round" opacity="0.1"/>
  </g>
  <g transform="translate(600, 700) scale(0.4) rotate(-10)">
    <path d="M60,100 C40,150 40,150 60,200" stroke="#3d7194" stroke-width="10" fill="none" stroke-linecap="round" opacity="0.15"/>
    <path d="M240,100 C260,150 260,150 240,200" stroke="#3d7194" stroke-width="10" fill="none" stroke-linecap="round" opacity="0.15"/>
    <line x1="90" y1="120" x2="210" y2="120" stroke="#3d7194" stroke-width="8" stroke-linecap="round" opacity="0.15"/>
    <line x1="90" y1="150" x2="180" y2="150" stroke="#3d7194" stroke-width="8" stroke-linecap="round" opacity="0.15"/>
    <line x1="90" y1="180" x2="150" y2="180" stroke="#3d7194" stroke-width="8" stroke-linecap="round" opacity="0.15"/>
  </g>
  <g transform="translate(250, 600) scale(0.5)">
    <path d="M60,70 L70,130 L100,100 L130,130 L140,70" 
          stroke="#235777" stroke-width="8" fill="none" stroke-linecap="round" stroke-linejoin="round" opacity="0.1"/>
    <path d="M80,130 C90,150 110,150 120,130 C130,110 130,90 120,70 C110,50 90,50 80,70 Z" 
          stroke="#235777" stroke-width="8" fill="none" stroke-linecap="round" stroke-linejoin="round" opacity="0.1"/>
  </g>
  <rect x="0" y="0" width="100%" height="100%" fill="rgba(255,255,255,0.02)"/>
</svg> 